<svg xmlns="http://www.w3.org/2000/svg" version="1.1" width="1267" height="706" viewBox="0 0 1267 706" font-family="Arial, Helvetica, sans-serif" font-size="12"><defs><marker id="arrow-internal" viewBox="0 0 10 10" refX="9" refY="5" markerWidth="7" markerHeight="7" orient="auto-start-reverse"><path d="M0,0 L10,5 L0,10 Z" fill="#d9d9d9"/></marker><marker id="arrow-legend" viewBox="0 0 10 10" refX="9" refY="5" markerWidth="7" markerHeight="7" orient="auto-start-reverse"><path d="M0,0 L10,5 L0,10 Z" fill="#666666"/></marker></defs><title>TMFC006: SERVICE CATALOG MANAGEMENT</title><desc>ODA component architecture for TMFC006 (Helm chart servicecatalogmanagement v1.0.0, specified). Exposed APIs on the right, dependent APIs on the left; green = core, blue = management, red = security function. Generated by skills/svg-diagram.</desc><rect width="100%" height="100%" fill="#ffffff"/><text x="30" y="40" font-size="16" font-weight="bold" fill="#000000">TMFC006: SERVICE CATALOG MANAGEMENT</text><text x="30" y="60" fill="#666666">Reference implementation</text><g id="component" transform="translate(298,80)"><rect width="646.83512" height="426" fill="#404040" stroke="#000000"/><g id="microservices"><g id="api-links"><path class="api-link" data-api="exposed:core:TMF633" data-from="svcatapi" fill="none" stroke="#4c9a52" stroke-opacity="0.85" stroke-width="1.5" stroke-dasharray="5 4" d="M560.83512,53 C603.83512,53 603.83512,57.16666666666667 646.83512,57.16666666666667"><title>svcatapi implements TMF633</title></path><path class="api-link" data-api="exposed:core:TMF657" data-from="svcqualapi" fill="none" stroke="#4c9a52" stroke-opacity="0.85" stroke-width="1.5" stroke-dasharray="5 4" d="M560.83512,117 C603.83512,117 603.83512,111.50000000000001 646.83512,111.50000000000001"><title>svcqualapi implements TMF657</title></path><path class="api-link" data-api="exposed:core:TMF701" data-from="procflowapi" fill="none" stroke="#4c9a52" stroke-opacity="0.85" stroke-width="1.5" stroke-dasharray="5 4" d="M560.83512,181 C603.83512,181 603.83512,165.83333333333334 646.83512,165.83333333333334"><title>procflowapi implements TMF701</title></path><path class="api-link" data-api="exposed:core:servicecatalogmcp" data-from="svcatmcp" fill="none" stroke="#4c9a52" stroke-opacity="0.85" stroke-width="1.5" stroke-dasharray="5 4" d="M560.83512,245 C603.83512,245 603.83512,220.16666666666669 646.83512,220.16666666666669"><title>svcatmcp implements servicecatalogmcp</title></path><path class="api-link" data-api="exposed:management:metrics" data-from="metricsapi" fill="none" stroke="#4a7fbf" stroke-opacity="0.85" stroke-width="1.5" stroke-dasharray="5 4" d="M560.83512,309 C603.83512,309 603.83512,294.50000000000006 646.83512,294.50000000000006"><title>metricsapi implements metrics</title></path><path class="api-link" data-api="exposed:security:TMF672" data-from="permissionspecapi" fill="none" stroke="#c0504d" stroke-opacity="0.85" stroke-width="1.5" stroke-dasharray="5 4" d="M560.83512,373 C603.83512,373 603.83512,368.83333333333337 646.83512,368.83333333333337"><title>permissionspecapi implements TMF672</title></path><path class="api-link" data-api="dependent:management:opentelemetry" data-from="procflowapi" fill="none" stroke="#4a7fbf" stroke-opacity="0.85" stroke-width="1.5" stroke-dasharray="5 4" d="M0,199.50000000000003 H288.41756 C333.41756,199.50000000000003 333.41756,181 378.41756,181"><title>procflowapi consumes opentelemetry (via OTL_EXPORTER_TRACE_PROTO_COLLECTOR_URL)</title></path><path class="api-link" data-api="dependent:management:TMF638" data-from="procflowapi" fill="none" stroke="#4a7fbf" stroke-opacity="0.85" stroke-width="1.5" stroke-dasharray="5 4" d="M0,139.70000000000002 H288.41756 C333.41756,139.70000000000002 333.41756,181 378.41756,181"><title>procflowapi consumes TMF638 (via CANVAS_INFO_HOST_PORT)</title></path><path class="api-link" data-api="dependent:management:opentelemetry" data-from="svcatapi" fill="none" stroke="#4a7fbf" stroke-opacity="0.85" stroke-width="1.5" stroke-dasharray="5 4" d="M0,199.50000000000003 H288.41756 C333.41756,199.50000000000003 333.41756,53 378.41756,53"><title>svcatapi consumes opentelemetry (via OTL_EXPORTER_TRACE_PROTO_COLLECTOR_URL)</title></path><path class="api-link" data-api="dependent:management:TMF638" data-from="svcatapi" fill="none" stroke="#4a7fbf" stroke-opacity="0.85" stroke-width="1.5" stroke-dasharray="5 4" d="M0,139.70000000000002 H288.41756 C333.41756,139.70000000000002 333.41756,53 378.41756,53"><title>svcatapi consumes TMF638 (via CANVAS_INFO_HOST_PORT)</title></path><path class="api-link" data-api="dependent:management:opentelemetry" data-from="svcqualapi" fill="none" stroke="#4a7fbf" stroke-opacity="0.85" stroke-width="1.5" stroke-dasharray="5 4" d="M0,199.50000000000003 H288.41756 C333.41756,199.50000000000003 333.41756,117 378.41756,117"><title>svcqualapi consumes opentelemetry (via OTL_EXPORTER_TRACE_PROTO_COLLECTOR_URL)</title></path><path class="api-link" data-api="dependent:management:TMF638" data-from="svcqualapi" fill="none" stroke="#4a7fbf" stroke-opacity="0.85" stroke-width="1.5" stroke-dasharray="5 4" d="M0,139.70000000000002 H288.41756 C333.41756,139.70000000000002 333.41756,117 378.41756,117"><title>svcqualapi consumes TMF638 (via CANVAS_INFO_HOST_PORT)</title></path><path class="api-link" data-api="dependent:core:TMF633" data-from="procflowapi" fill="none" stroke="#4c9a52" stroke-opacity="0.85" stroke-width="1.5" stroke-dasharray="5 4" d="M0,59.900000000000006 H288.41756 C333.41756,59.900000000000006 333.41756,181 378.41756,181"><title>procflowapi consumes TMF633 (via discovered at runtime via the Canvas info service)</title></path><path class="api-link" data-api="dependent:core:TMF633" data-from="svcatapi" fill="none" stroke="#4c9a52" stroke-opacity="0.85" stroke-width="1.5" stroke-dasharray="5 4" d="M0,59.900000000000006 H288.41756 C333.41756,59.900000000000006 333.41756,53 378.41756,53"><title>svcatapi consumes TMF633 (via discovered at runtime via the Canvas info service)</title></path><path class="api-link" data-api="dependent:core:TMF633" data-from="svcqualapi" fill="none" stroke="#4c9a52" stroke-opacity="0.85" stroke-width="1.5" stroke-dasharray="5 4" d="M0,59.900000000000006 H288.41756 C333.41756,59.900000000000006 333.41756,117 378.41756,117"><title>svcqualapi consumes TMF633 (via discovered at runtime via the Canvas info service)</title></path></g><g id="internal-links"><path class="internal-link" data-from="procflowapi" data-to="mongodb" fill="none" stroke="#d9d9d9" stroke-width="1.5" marker-end="url(#arrow-internal)" d="M378.41756,181 C323.41756,181 323.41756,230.50000000000003 268.41756,230.50000000000003"><title>procflowapi → mongodb
MONGODB_HOST=r1-mongodb</title></path><path class="internal-link" data-from="permissionspecapi" data-to="mongodb" fill="none" stroke="#d9d9d9" stroke-width="1.5" marker-end="url(#arrow-internal)" d="M378.41756,373 C323.41756,373 323.41756,230.50000000000003 268.41756,230.50000000000003"><title>permissionspecapi → mongodb
MONGODB_HOST=r1-mongodb</title></path><path class="internal-link" data-from="svcatapi" data-to="mongodb" fill="none" stroke="#d9d9d9" stroke-width="1.5" marker-end="url(#arrow-internal)" d="M378.41756,53 C323.41756,53 323.41756,230.50000000000003 268.41756,230.50000000000003"><title>svcatapi → mongodb
MONGODB_HOST=r1-mongodb</title></path><path class="internal-link" data-from="svcqualapi" data-to="mongodb" fill="none" stroke="#d9d9d9" stroke-width="1.5" marker-end="url(#arrow-internal)" d="M378.41756,117 C323.41756,117 323.41756,230.50000000000003 268.41756,230.50000000000003"><title>svcqualapi → mongodb
MONGODB_HOST=r1-mongodb</title></path></g><g id="workloads"><g class="microservice" data-name="metricsapi" data-role="service" transform="translate(378.41756,286)"><title>metricsapi (Deployment)
image: servicecatalogmetrics:0.1
service: r1-servicecatalogmanagement-sm:4000
exposed API: metrics</title><rect width="182.41756" height="46" rx="9" fill="#ffffff" stroke="#000000"/><text x="10" y="19" font-weight="bold" fill="#000000">metricsapi</text><text x="10" y="35" font-size="10" fill="#666666">servicecatalogmetrics:0.1  :4000</text></g><g class="microservice" data-name="permissionspecapi" data-role="service" transform="translate(378.41756,350)"><title>permissionspecapi (Deployment)
image: permissionspecapi:0.20
service: r1-permissionspecapi:8080
exposed API: TMF672</title><rect width="182.41756" height="46" rx="9" fill="#ffffff" stroke="#000000"/><text x="10" y="19" font-weight="bold" fill="#000000">permissionspecapi</text><text x="10" y="35" font-size="10" fill="#666666">permissionspecapi:0.20  :8080</text></g><g class="microservice" data-name="procflowapi" data-role="service" transform="translate(378.41756,158)"><title>procflowapi (Deployment)
image: processflowapi:0.2
service: r1-procflowapi:8080
exposed API: TMF701
dependent API: opentelemetry
dependent API: TMF638
dependent API: TMF633</title><rect width="182.41756" height="46" rx="9" fill="#ffffff" stroke="#000000"/><text x="10" y="19" font-weight="bold" fill="#000000">procflowapi</text><text x="10" y="35" font-size="10" fill="#666666">processflowapi:0.2  :8080</text></g><g class="microservice" data-name="svcatapi" data-role="service" transform="translate(378.41756,30)"><title>svcatapi (Deployment)
image: servicecatalogapi:0.2
service: r1-svcatapi:8080
exposed API: TMF633
dependent API: opentelemetry
dependent API: TMF638
dependent API: TMF633</title><rect width="182.41756" height="46" rx="9" fill="#ffffff" stroke="#000000"/><text x="10" y="19" font-weight="bold" fill="#000000">svcatapi</text><text x="10" y="35" font-size="10" fill="#666666">servicecatalogapi:0.2  :8080</text></g><g class="microservice" data-name="svcatmcp" data-role="service" transform="translate(378.41756,222)"><title>svcatmcp (Deployment)
image: servicecatalogmcp:0.1
service: r1-svcatmcp:8080
exposed API: servicecatalogmcp</title><rect width="182.41756" height="46" rx="9" fill="#ffffff" stroke="#000000"/><text x="10" y="19" font-weight="bold" fill="#000000">svcatmcp</text><text x="10" y="35" font-size="10" fill="#666666">servicecatalogmcp:0.1  :8080</text></g><g class="microservice" data-name="svcqualapi" data-role="service" transform="translate(378.41756,94)"><title>svcqualapi (Deployment)
image: servicequalityapi:0.2
service: r1-svcqualapi:8080
exposed API: TMF657
dependent API: opentelemetry
dependent API: TMF638
dependent API: TMF633</title><rect width="182.41756" height="46" rx="9" fill="#ffffff" stroke="#000000"/><text x="10" y="19" font-weight="bold" fill="#000000">svcqualapi</text><text x="10" y="35" font-size="10" fill="#666666">servicequalityapi:0.2  :8080</text></g><g class="microservice" data-name="mongodb" data-role="database" transform="translate(86,207.50000000000003)"><title>mongodb (Deployment, database)
image: mongo:5.0.1
service: r1-mongodb:27017</title><rect width="182.41756" height="46" rx="9" fill="#ffffff" stroke="#000000"/><text x="10" y="19" font-weight="bold" fill="#000000">mongodb</text><text x="10" y="35" font-size="10" fill="#666666">mongo:5.0.1  :27017</text><path transform="translate(158.41756,9)" fill="none" stroke="#666666" d="M0,3 A7,3 0 0 1 14,3 V13 A7,3 0 0 1 0,13 Z M0,3 A7,3 0 0 0 14,3"/></g><g class="microservice" data-name="roleinitialization" data-role="job" transform="translate(86,271.5)"><title>roleinitialization (Job)
image: roleinitialization:0.1</title><rect width="182.41756" height="46" rx="9" fill="#ececec" stroke="#000000" stroke-dasharray="4 3"/><text x="10" y="19" font-weight="bold" fill="#000000">roleinitialization</text><text x="10" y="35" font-size="10" fill="#666666">roleinitialization:0.1  Job</text></g><g class="microservice" data-name="servicecataloginitialization" data-role="job" transform="translate(86,335.5)"><title>servicecataloginitialization (Job)
image: servicecataloginitialization:0.1</title><rect width="182.41756" height="46" rx="9" fill="#ececec" stroke="#000000" stroke-dasharray="4 3"/><text x="10" y="19" font-weight="bold" fill="#000000">servicecataloginitialization</text><text x="10" y="35" font-size="10" fill="#666666">servicecataloginitialization:0.1  Job</text></g></g></g><g id="etoms"/><g id="sids"/></g><g id="dependent-apis"><g class="dependent-api" data-api="TMF633" data-function="core" transform="translate(30,139.9)"><title>[core] TMF633 Service Catalog Management
required: false
apiType: openapi</title><path fill="none" stroke="#4c9a52" stroke-width="2.5" d="M10,-10 A10,10 0 0 1 10,10"/><line x1="20" x2="268.08" y1="0" y2="0" stroke="#4c9a52" stroke-width="2"/><rect x="36.00200000000001" y="-23" width="216.07599999999996" height="17" rx="3" fill="#e8f5e9"/><text x="144.04" y="-10" text-anchor="middle" fill="#000000">TMF633 Service Catalog Management</text></g><g class="dependent-api" data-api="TMF638" data-function="management" transform="translate(30,219.70000000000002)"><title>[management] TMF638 Service Inventory Management
platform dependency (not declared in the Component)
ODA Canvas info service (TMF638 Service Inventory) used to discover the URLs of the component's dependent APIs at runtime
inferred from env: procflowapi (CANVAS_INFO_HOST_PORT=info.canvas.svc.cluster.local); svcatapi (CANVAS_INFO_HOST_PORT=info.canvas.svc.cluster.local); svcqualapi (CANVAS_INFO_HOST_PORT=info.canvas.svc.cluster.local)</title><path fill="none" stroke="#4a7fbf" stroke-width="2.5" d="M10,-10 A10,10 0 0 1 10,10"/><line x1="20" x2="268.08" y1="0" y2="0" stroke="#4a7fbf" stroke-width="2"/><rect x="32" y="-23" width="224.07999999999998" height="17" rx="3" fill="#e7eff9"/><text x="144.04" y="-10" text-anchor="middle" fill="#000000">TMF638 Service Inventory Management</text></g><g class="dependent-api" data-api="opentelemetry" data-function="management" transform="translate(30,279.5)"><title>[management] OpenTelemetry (OTLP)
platform dependency (not declared in the Component)
Canvas OpenTelemetry collector receiving traces/metrics over OTLP
inferred from env: procflowapi (OTL_EXPORTER_TRACE_PROTO_COLLECTOR_URL=http://observability-opentelemetry-collector.monitoring.svc.cluster.local:4318/v1/traces); svcatapi (OTL_EXPORTER_TRACE_PROTO_COLLECTOR_URL=http://observability-opentelemetry-collector.monitoring.svc.cluster.local:4318/v1/traces); svcqualapi (OTL_EXPORTER_TRACE_PROTO_COLLECTOR_URL=http://observability-opentelemetry-collector.monitoring.svc.cluster.local:4318/v1/traces)</title><path fill="none" stroke="#4a7fbf" stroke-width="2.5" d="M10,-10 A10,10 0 0 1 10,10"/><line x1="20" x2="268.08" y1="0" y2="0" stroke="#4a7fbf" stroke-width="2"/><rect x="76.358" y="-23" width="135.36399999999998" height="17" rx="3" fill="#e7eff9"/><text x="144.04" y="-10" text-anchor="middle" fill="#000000">OpenTelemetry (OTLP)</text></g></g><g id="exposed-apis"><g class="exposed-api" data-api="TMF633" data-function="core" transform="translate(944.83512,137.16666666666669)"><title>[core] TMF633 Service Catalog Management
required: false
apiType: openapi
path: /r1-servicecatalogmanagement/tmf-api/serviceCatalogManagement/v4
implementation: r1-svcatapi</title><line x1="0" x2="271.396" y1="0" y2="0" stroke="#4c9a52" stroke-width="2"/><circle cx="281.396" cy="0" r="10" fill="#e8f5e9" stroke="#4c9a52" stroke-width="2"/><rect x="32.660000000000025" y="-23" width="216.07599999999996" height="17" rx="3" fill="#e8f5e9"/><text x="140.698" y="-10" text-anchor="middle" fill="#000000">TMF633 Service Catalog Management</text></g><g class="exposed-api" data-api="TMF657" data-function="core" transform="translate(944.83512,191.5)"><title>[core] TMF657 Service Quality Management
required: false
apiType: openapi
path: /r1-servicecatalogmanagement/tmf-api/serviceQualityManagement/v4
implementation: r1-svcqualapi</title><line x1="0" x2="271.396" y1="0" y2="0" stroke="#4c9a52" stroke-width="2"/><circle cx="281.396" cy="0" r="10" fill="#e8f5e9" stroke="#4c9a52" stroke-width="2"/><rect x="34.664000000000016" y="-23" width="212.06799999999998" height="17" rx="3" fill="#e8f5e9"/><text x="140.698" y="-10" text-anchor="middle" fill="#000000">TMF657 Service Quality Management</text></g><g class="exposed-api" data-api="TMF701" data-function="core" transform="translate(944.83512,245.83333333333334)"><title>[core] TMF701 Process Flow Management
required: false
apiType: openapi
path: /r1-servicecatalogmanagement/tmf-api/processFlowManagement/v4
implementation: r1-procflowapi</title><line x1="0" x2="271.396" y1="0" y2="0" stroke="#4c9a52" stroke-width="2"/><circle cx="281.396" cy="0" r="10" fill="#e8f5e9" stroke="#4c9a52" stroke-width="2"/><rect x="39.00200000000001" y="-23" width="203.392" height="17" rx="3" fill="#e8f5e9"/><text x="140.698" y="-10" text-anchor="middle" fill="#000000">TMF701 Process Flow Management</text></g><g class="exposed-api" data-api="servicecatalogmcp" data-function="core" transform="translate(944.83512,300.1666666666667)"><title>[core] Servicecatalogmcp (MCP)
required: false
apiType: mcp
path: /r1-servicecatalogmanagement/mcp
implementation: r1-svcatmcp</title><line x1="0" x2="271.396" y1="0" y2="0" stroke="#4c9a52" stroke-width="2"/><circle cx="281.396" cy="0" r="10" fill="#e8f5e9" stroke="#4c9a52" stroke-width="2"/><rect x="66.02000000000001" y="-23" width="149.356" height="17" rx="3" fill="#e8f5e9"/><text x="140.698" y="-10" text-anchor="middle" fill="#000000">Servicecatalogmcp (MCP)</text></g><g class="exposed-api" data-api="metrics" data-function="management" transform="translate(944.83512,374.50000000000006)"><title>[management] Metrics (Prometheus)
required: false
apiType: prometheus
path: /r1-servicecatalogmanagement/metrics
implementation: r1-servicecatalogmanagement-sm</title><line x1="0" x2="271.396" y1="0" y2="0" stroke="#4a7fbf" stroke-width="2"/><circle cx="281.396" cy="0" r="10" fill="#e7eff9" stroke="#4a7fbf" stroke-width="2"/><rect x="78.35600000000001" y="-23" width="124.684" height="17" rx="3" fill="#e7eff9"/><text x="140.698" y="-10" text-anchor="middle" fill="#000000">Metrics (Prometheus)</text></g><g class="exposed-api" data-api="TMF672" data-function="security" transform="translate(944.83512,448.83333333333337)"><title>[security] TMF672 User Role Permission Management
required: false
apiType: openapi
path: /r1-servicecatalogmanagement/rolesAndPermissionsManagement/v5
implementation: r1-permissionspecapi</title><line x1="0" x2="271.396" y1="0" y2="0" stroke="#c0504d" stroke-width="2"/><circle cx="281.396" cy="0" r="10" fill="#fbeaea" stroke="#c0504d" stroke-width="2"/><rect x="17" y="-23" width="247.39600000000002" height="17" rx="3" fill="#fbeaea"/><text x="140.698" y="-10" text-anchor="middle" fill="#000000">TMF672 User Role Permission Management</text></g></g><text x="298" y="526" font-style="italic" font-size="11" fill="#666666">Source: Helm chart servicecatalogmanagement v1.0.0 · Production · bold API = required</text><text x="298" y="540" font-style="italic" font-size="11" fill="#666666">helm template r1 --set permissionspec.enabled=true --set component.MCPServer.enabled=true --set component.dependentAPIs.enabled=true --set processflow.enabled=true</text><g id="legend" transform="translate(30,580)"><rect width="1206.3111199999998" height="96" rx="48" fill="#ffffff" stroke="#000000" stroke-width="1.5"/><text x="40" y="48" dy="0.35em" font-weight="bold">LEGEND</text><g transform="translate(140,32)"><path fill="none" stroke="#4c9a52" stroke-width="2.5" d="M10,-10 A10,10 0 0 1 10,10"/><line x1="20" x2="50" stroke="#4c9a52" stroke-width="2"/><text x="60" dy="0.35em" fill="#000000">Dependent API</text></g><g transform="translate(401.09378,32)"><line x1="0" x2="30" stroke="#4c9a52" stroke-width="2"/><circle cx="40" r="10" fill="#e8f5e9" stroke="#4c9a52" stroke-width="2"/><text x="60" dy="0.35em" fill="#000000">Exposed API</text></g><g transform="translate(650.1755599999999,32)"><rect x="0" y="-11" width="50" height="22" rx="9" fill="#ffffff" stroke="#000000"/><text x="60" dy="0.35em" fill="#000000">Microservice</text></g><g transform="translate(897.2173399999999,32)"><line x1="0" x2="46" stroke="#666666" stroke-width="1.5" marker-end="url(#arrow-legend)"/><text x="60" dy="0.35em" fill="#000000">Internal integration</text></g><g transform="translate(140,64)"><rect x="0" y="-9" width="50" height="18" rx="3" fill="#e8f5e9" stroke="#4c9a52" stroke-width="2"/><text x="60" dy="0.35em" fill="#000000">Core function</text></g><g transform="translate(464.98103999999995,64)"><rect x="0" y="-9" width="50" height="18" rx="3" fill="#e7eff9" stroke="#4a7fbf" stroke-width="2"/><text x="60" dy="0.35em" fill="#000000">Management function</text></g><g transform="translate(833.9900799999999,64)"><rect x="0" y="-9" width="50" height="18" rx="3" fill="#fbeaea" stroke="#c0504d" stroke-width="2"/><text x="60" dy="0.35em" fill="#000000">Security function</text></g></g></svg>
